<?xml version="1.0" encoding="UTF-8"?>
<svg id="Layer_1" data-name="Layer 1" xmlns="http://www.w3.org/2000/svg" viewBox="0 0 48 48">
  <rect x="0" y="0" width="48" height="48" rx="8" ry="8" style="fill: #00005c;"/>
  <g>
    <path d="M11.12,29.09l-2.07,6.86H4.47L12.25,11.68h5.64l7.88,24.26h-4.76l-2.2-6.86h-7.71Zm6.98-3.35l-1.91-5.98c-.47-1.5-.87-3.15-1.23-4.56h-.08c-.35,1.42-.72,3.1-1.15,4.55l-1.87,5.99h6.25Z" style="fill: #adabff;"/>
    <path d="M31.65,28.41c.12,3.18,2.58,4.56,5.41,4.56,2.04,0,3.5-.32,4.84-.81l.66,3.05c-1.5,.64-3.58,1.11-6.12,1.11-5.69,0-9.02-3.51-9.02-8.88,0-4.84,2.93-9.41,8.57-9.41s7.55,4.68,7.55,8.52c0,.82-.07,1.48-.16,1.86h-11.72Zm7.71-3.09c.02-1.62-.69-4.27-3.65-4.27-2.73,0-3.86,2.48-4.06,4.27h7.71Z" style="fill: #adabff;"/>
  </g>
</svg>