<?xml version="1.0" encoding="UTF-8"?>
<svg id="Layer_1" data-name="Layer 1" xmlns="http://www.w3.org/2000/svg" viewBox="0 0 48 48">
  <rect width="48" height="48" rx="5" ry="5"/>
  <g>
    <circle cx="30" cy="24" r="6" style="fill: #1abcfe;"/>
    <path d="M18,18c-3.31,0-6,2.69-6,6s2.69,6,6,6h6v-12h-6Z" style="fill: #a259ff;"/>
    <path d="M18,30c-3.31,0-6,2.69-6,6s2.69,6,6,6,6-2.69,6-6v-6h-6Z" style="fill: #0acf83;"/>
    <path d="M18,6c-3.31,0-6,2.69-6,6s2.69,6,6,6h6V6h-6Z" style="fill: #f24e1e;"/>
    <path d="M30,6h-6v12h6c3.31,0,6-2.69,6-6s-2.69-6-6-6Z" style="fill: #ff7262;"/>
  </g>
</svg>