<?xml version="1.0" encoding="UTF-8"?>
<svg id="Layer_1" data-name="Layer 1" xmlns="http://www.w3.org/2000/svg" viewBox="0 0 48 48">
  <rect x="6.34" y="6.34" width="35.31" height="35.31" rx="2.72" ry="2.72" transform="translate(24 -9.94) rotate(45)" style="fill: #f05033;"/>
  <path d="M34,22c-.36,0-.69,.06-1.02,.15l-5.13-5.13c.09-.33,.15-.67,.15-1.02,0-2.21-1.79-4-4-4-.36,0-.69,.06-1.02,.15l-5.98-6.15-3,3,6.15,5.98c-.09,.33-.15,.67-.15,1.02,0,1.48,.81,2.75,2,3.45v13.11c-1.19,.69-2,1.97-2,3.45,0,2.21,1.79,4,4,4s4-1.79,4-4c0-1.48-.81-2.75-2-3.45v-11.73l4.15,4.15c-.09,.33-.15,.67-.15,1.02,0,2.21,1.79,4,4,4s4-1.79,4-4-1.79-4-4-4Z" style="fill: #fff;"/>
</svg>