<?xml version="1.0" encoding="UTF-8"?>
<svg id="Layer_1" data-name="Layer 1" xmlns="http://www.w3.org/2000/svg" viewBox="0 0 48 48">
  <rect width="48" height="48" rx="8" ry="8" style="fill: #2d0402;"/>
  <g>
    <path d="M16.13,29.56l-2.07,6.86h-4.58l7.79-24.26h5.64l7.88,24.26h-4.76l-2.2-6.86h-7.71Zm6.98-3.35l-1.91-5.98c-.47-1.5-.87-3.15-1.23-4.56h-.08c-.35,1.42-.72,3.1-1.15,4.55l-1.87,5.99h6.25Z" style="fill: #ff9c00;"/>
    <path d="M38.52,13.98c0,1.32-.96,2.39-2.53,2.39-1.47,0-2.43-1.07-2.43-2.39,0-1.35,.99-2.4,2.48-2.4s2.46,1.03,2.47,2.4Zm-4.69,22.43V18.89h4.43v17.52h-4.43Z" style="fill: #ff9c00;"/>
  </g>
</svg>