<?xml version="1.0" encoding="UTF-8"?>
<svg id="Layer_1" data-name="Layer 1" xmlns="http://www.w3.org/2000/svg" viewBox="0 0 48 48">
  <rect width="48" height="48" rx="3" ry="3" style="fill: #f0db4f;"/>
  <g>
    <path d="M12.71,38.25l3.65-2.21c.7,1.25,1.34,2.3,2.88,2.3s2.4-.58,2.4-2.82v-15.23h4.48v15.29c0,4.64-2.72,6.75-6.69,6.75-3.58,0-5.66-1.86-6.72-4.1Z" style="fill: #323330;"/>
    <path d="M28.55,37.77l3.65-2.11c.96,1.57,2.21,2.72,4.42,2.72,1.86,0,3.04-.93,3.04-2.21,0-1.54-1.22-2.08-3.26-2.98l-1.12-.48c-3.23-1.38-5.38-3.1-5.38-6.75,0-3.36,2.56-5.92,6.56-5.92,2.85,0,4.9,.99,6.37,3.58l-3.49,2.24c-.77-1.38-1.6-1.92-2.88-1.92s-2.14,.83-2.14,1.92c0,1.34,.83,1.89,2.75,2.72l1.12,.48c3.81,1.63,5.95,3.3,5.95,7.04,0,4.03-3.17,6.24-7.42,6.24s-6.85-1.98-8.16-4.58Z" style="fill: #323330;"/>
  </g>
</svg>