<?xml version="1.0" encoding="UTF-8"?>
<svg id="Layer_1" data-name="Layer 1" xmlns="http://www.w3.org/2000/svg" viewBox="0 0 48 48">
  <rect x=".08" y="-.04" width="48" height="48" rx="8" ry="8" style="fill: #001e36;"/>
  <g>
    <path d="M8.71,12.09c1.61-.28,3.81-.5,6.79-.5,3.24,0,5.6,.68,7.14,1.98,1.45,1.19,2.38,3.09,2.38,5.37s-.72,4.19-2.07,5.5c-1.78,1.77-4.53,2.61-7.67,2.61-.83,0-1.57-.04-2.17-.17v9.16h-4.4V12.09Zm4.4,11.31c.56,.15,1.27,.2,2.17,.2,3.31,0,5.33-1.65,5.33-4.49,0-2.67-1.87-4.11-4.94-4.11-1.22,0-2.1,.11-2.57,.21v8.19Z" style="fill: #3dabf8;"/>
    <path d="M27.72,31.96c.98,.61,2.89,1.28,4.47,1.28,1.95,0,2.82-.82,2.82-1.97s-.72-1.79-2.88-2.55c-3.43-1.17-4.86-3.04-4.84-5.12,0-3.08,2.56-5.48,6.65-5.48,1.93,0,3.62,.48,4.65,1.05l-.88,3.11c-.74-.42-2.15-1.01-3.71-1.01s-2.46,.78-2.46,1.86,.85,1.65,3.06,2.45c3.19,1.13,4.66,2.75,4.68,5.34,0,3.2-2.49,5.5-7.12,5.5-2.12,0-4.05-.51-5.34-1.23l.89-3.23Z" style="fill: #3dabf8;"/>
  </g>
</svg>