<?xml version="1.0" encoding="UTF-8"?>
<svg id="Layer_1" data-name="Layer 1" xmlns="http://www.w3.org/2000/svg" viewBox="0 0 48 48">
  <rect y="0" width="48" height="48" rx="8" ry="8" style="fill: #01005d;"/>
  <g>
    <path d="M9.32,12.28c1.61-.28,3.81-.5,6.79-.5,3.24,0,5.6,.68,7.14,1.98,1.45,1.19,2.38,3.09,2.38,5.37s-.72,4.19-2.07,5.5c-1.78,1.77-4.53,2.61-7.67,2.61-.83,0-1.57-.04-2.17-.17v9.16h-4.4V12.28Zm4.4,11.31c.56,.15,1.27,.2,2.17,.2,3.31,0,5.33-1.65,5.33-4.49,0-2.67-1.87-4.11-4.94-4.11-1.22,0-2.1,.11-2.57,.21v8.19Z" style="fill: #9c9cff;"/>
    <path d="M28.86,24.34c0-2.35-.05-4.07-.14-5.63h3.84l.16,3.33h.12c.86-2.47,2.91-3.73,4.8-3.73,.43,0,.69,.02,1.04,.1v4.17c-.38-.08-.76-.13-1.3-.13-2.11,0-3.58,1.34-3.97,3.35-.07,.39-.11,.86-.11,1.34v9.09h-4.43v-11.89Z" style="fill: #9c9cff;"/>
  </g>
</svg>