<?xml version="1.0" encoding="UTF-8"?>
<svg id="Layer_1" data-name="Layer 1" xmlns="http://www.w3.org/2000/svg" viewBox="0 0 48 48">
  <path d="M47.42,21.73c-.49-.92-1.18-1.67-1.99-2.32-1.25-1.02-2.67-1.75-4.15-2.37-.99-.42-2.01-.77-3.05-1.06-.17-.05-.23-.13-.18-.3,.09-.34,.16-.69,.24-1.03,.26-1.23,.46-2.46,.52-3.71,.04-.93,.06-1.87-.07-2.8-.12-.92-.33-1.82-.74-2.67-.4-.83-.94-1.54-1.71-2.06-.58-.39-1.19-.64-1.89-.68h-1.79c-.26,.06-.53,.03-.79,.1-.78,.21-1.53,.5-2.25,.87-1.45,.74-2.75,1.68-3.98,2.73-.48,.41-.96,.82-1.4,1.27-.11,.12-.2,.13-.31,0-.12-.13-.27-.23-.39-.36-1.1-1.05-2.28-2-3.56-2.81-1.39-.88-2.83-1.67-4.52-1.81h-1.79c-.29,.07-.6,.06-.89,.17-1.25,.48-2.11,1.37-2.68,2.56-.6,1.25-.79,2.59-.84,3.96-.02,.49,0,.97,.03,1.46,.05,.78,.14,1.55,.25,2.32,.12,.84,.3,1.67,.5,2.5,.04,.18-.02,.25-.18,.3-.62,.18-1.23,.37-1.84,.6-1.71,.62-3.35,1.37-4.84,2.44-.93,.67-1.76,1.45-2.35,2.45-.97,1.66-.98,3.33-.02,5,.56,.97,1.34,1.73,2.23,2.39,1.29,.96,2.71,1.66,4.2,2.25,.86,.34,1.73,.63,2.61,.89,.22,.06,.23,.08,.18,.3-.2,.85-.38,1.7-.51,2.56-.16,1.01-.25,2.02-.27,3.04,0,.38,0,.76,.03,1.14,.05,.84,.17,1.66,.41,2.46,.26,.89,.67,1.71,1.3,2.38,.7,.74,1.53,1.27,2.59,1.35h2c.37-.06,.74-.08,1.1-.2,1.55-.49,2.94-1.29,4.25-2.24,1.05-.76,2.05-1.59,2.97-2.5,.12-.12,.2-.13,.33,0,.28,.26,.56,.52,.85,.77,1.03,.92,2.1,1.79,3.29,2.5,1.31,.79,2.64,1.54,4.22,1.67h1.96c.29-.06,.6-.05,.89-.17,1.29-.53,2.16-1.47,2.71-2.73,.46-1.04,.67-2.14,.72-3.26,.06-1.16,.02-2.32-.13-3.47-.15-1.12-.35-2.22-.63-3.31-.04-.17,0-.24,.17-.29,.42-.12,.84-.25,1.26-.39,1.39-.48,2.76-1.03,4.04-1.76,1.22-.7,2.36-1.51,3.25-2.62,.72-.9,1.17-1.91,1.22-3.06,.04-.85-.18-1.66-.57-2.41ZM26.46,8.52c1.03-.92,2.11-1.76,3.29-2.47,.83-.49,1.69-.91,2.64-1.15,.55-.14,1.1-.2,1.66-.11,.66,.1,1.19,.42,1.6,.95,.37,.48,.59,1.03,.74,1.61,.23,.88,.29,1.79,.28,2.7-.02,1.79-.33,3.53-.76,5.26-.04,.15-.04,.15-.2,.11-.75-.17-1.5-.31-2.25-.44-.85-.14-1.71-.27-2.56-.37-.41-.05-.83-.09-1.25-.13-.12-.01-.19-.07-.25-.16-.75-1.06-1.54-2.08-2.37-3.08-.5-.6-1.02-1.2-1.57-1.79,.32-.33,.65-.63,.99-.93ZM14.23,26.42c.86,1.65,1.78,3.24,2.77,4.8-.58-.01-3.62-.54-4.27-.73,.42-1.37,.93-2.71,1.5-4.07Zm-.08-5.09c-.5-1.21-.96-2.43-1.36-3.68,0-.01,0-.03-.01-.04-.05-.16-.05-.16,.11-.19,1.22-.26,2.44-.48,3.68-.64,.13-.02,.26-.05,.44-.04-.99,1.56-1.91,3.14-2.75,4.76-.07-.04-.08-.11-.1-.17Zm1.28,2.84c-.07-.14-.07-.25,0-.39,1.21-2.48,2.59-4.87,4.14-7.16,.08-.11,.16-.17,.3-.18,2.03-.14,4.06-.17,6.09-.11,.76,.02,1.51,.07,2.27,.12,.12,0,.17,.07,.23,.15,.35,.53,.7,1.06,1.04,1.6,1.14,1.81,2.18,3.68,3.12,5.6,.07,.13,.07,.24,0,.37-1.21,2.47-2.58,4.85-4.11,7.13-.11,.16-.22,.22-.41,.24-1.36,.08-2.72,.14-4.08,.13-1.35,0-2.7-.05-4.05-.13-.04,0-.07,0-.11,0-.14,0-.23-.06-.31-.18-.81-1.21-1.58-2.44-2.3-3.7-.65-1.14-1.26-2.29-1.84-3.47Zm18.36,2.3c.08,0,.08,.06,.09,.1,.51,1.23,.98,2.48,1.39,3.76,.05,.16,.05,.16-.12,.2-.77,.17-1.55,.32-2.33,.44-.54,.09-1.09,.16-1.64,.24-.03,0-.07,0-.13,0,.99-1.55,1.9-3.13,2.74-4.75Zm.08-5.07s-.03,.06-.06,.12c-.86-1.65-1.77-3.22-2.75-4.76,.01-.01,.02-.03,.03-.04,.36,.05,.71,.09,1.07,.15,1.01,.15,2.01,.33,3.01,.55,.15,.03,.15,.04,.1,.18-.41,1.29-.88,2.55-1.4,3.8Zm-9.83-10.46c.97,1.05,1.87,2.15,2.77,3.33-1.86-.07-3.68-.08-5.51,0,.08-.27,2.24-2.89,2.74-3.33Zm-12.66-1.52c.02-.87,.13-1.74,.42-2.57,.18-.51,.42-.97,.8-1.36,.53-.54,1.18-.75,1.97-.75,.7,0,1.42,.21,2.11,.49,1.12,.45,2.13,1.09,3.09,1.8,.94,.69,1.82,1.46,2.67,2.27,.03,.02,.05,.05,.08,.07,.05,.04,.04,.08,0,.13-.06,.06-.12,.12-.17,.19-1.32,1.45-2.54,2.99-3.68,4.59-.1,.13-.2,.19-.36,.2-.87,.07-1.75,.18-2.61,.31-1.13,.17-2.25,.37-3.36,.62-.16,.04-.17,.03-.2-.09-.48-1.94-.81-3.89-.76-5.9Zm-.6,20.38c-.02,.07,0,.19-.18,.15-.21-.06-.46-.14-.7-.21-1.46-.46-2.89-1.01-4.23-1.75-.84-.47-1.63-1-2.31-1.69-.31-.32-.59-.67-.8-1.06-.45-.84-.45-1.68,0-2.52,.29-.55,.71-1.01,1.17-1.42,.75-.66,1.59-1.18,2.48-1.63,1.4-.71,2.87-1.24,4.38-1.67,.14-.04,.14-.04,.19,.13,.38,1.2,.81,2.38,1.28,3.55,.29,.71,.59,1.41,.91,2.1,.06,.14,.06,.24,0,.37-.84,1.84-1.58,3.71-2.19,5.64Zm11.7,8.81c-1.35,1.3-2.79,2.49-4.42,3.43-.78,.45-1.6,.82-2.48,1.03-.56,.13-1.12,.19-1.68,.07-.61-.12-1.1-.43-1.48-.92-.4-.51-.62-1.09-.77-1.71-.2-.81-.26-1.63-.26-2.46,0-1.21,.15-2.4,.36-3.59,.11-.61,.24-1.21,.39-1.8,.03-.14,.05-.16,.21-.13,1.54,.34,3.1,.6,4.66,.79,.46,.05,.93,.11,1.39,.15,.12,.01,.18,.06,.24,.14,.64,.91,1.32,1.79,2.02,2.66,.59,.73,1.2,1.43,1.83,2.12,.1,.11,.1,.11,0,.21Zm1.56-1.6c-.98-1.07-1.89-2.16-2.78-3.34,1.86,.08,3.68,.08,5.51,.03-.85,1.16-1.76,2.26-2.73,3.31Zm12.59,2.42c-.09,.82-.27,1.62-.67,2.35-.37,.67-.9,1.14-1.65,1.33-.45,.11-.9,.11-1.35,.04-.96-.14-1.84-.52-2.68-.97-1.15-.62-2.2-1.39-3.2-2.23-.48-.41-.95-.83-1.41-1.26-.06-.05-.12-.1-.19-.17,.43-.47,.84-.93,1.23-1.39,.94-1.11,1.84-2.26,2.68-3.46,.09-.12,.18-.19,.34-.2,.87-.08,1.73-.19,2.59-.31,1.14-.17,2.28-.37,3.4-.62,.18-.04,.17-.04,.21,.13,.31,1.27,.56,2.54,.68,3.84,.09,.97,.12,1.95,0,2.93Zm8.87-14.17c-.29,.53-.7,.98-1.15,1.38-.74,.66-1.58,1.17-2.46,1.62-1.4,.72-2.88,1.24-4.39,1.68-.14,.04-.15,.04-.19-.1-.62-1.96-1.37-3.87-2.22-5.73-.05-.11-.03-.19,.01-.3,.85-1.85,1.59-3.75,2.21-5.69,.05-.15,.05-.16,.18-.12,1.71,.49,3.38,1.1,4.94,1.97,.84,.47,1.63,1,2.3,1.69,.37,.38,.69,.79,.9,1.28,.15,.33,.22,.67,.23,1,0,.49-.13,.92-.35,1.32Z" style="fill: #61dafb;"/>
  <path d="M24.02,28.23c-2.36,0-4.25-1.9-4.25-4.26,0-2.35,1.9-4.26,4.26-4.25,2.35,0,4.25,1.91,4.25,4.26,0,2.35-1.91,4.25-4.26,4.25Z" style="fill: #61dafb;"/>
</svg>