<?xml version="1.0" encoding="UTF-8"?>
<svg id="Layer_1" data-name="Layer 1" xmlns="http://www.w3.org/2000/svg" viewBox="0 0 48 48">
  <circle cx="24" cy="24" r="24" style="fill: #cd6799;"/>
  <path d="M43.33,27.86c0-.09,0-.17-.02-.26-.09-.51-.28-.98-.58-1.41-.51-.75-1.21-1.28-2.05-1.63-1.06-.44-2.17-.54-3.31-.42-.89,.09-1.74,.33-2.54,.71-.02,0-.03,.02-.06,0,0-.01-.02-.03-.03-.04-.13-.26-.25-.51-.39-.77-.25-.46-.35-.95-.41-1.46-.06-.52,0-1.03,.14-1.53,.08-.28,.18-.57,.27-.85,.06-.18,.02-.28-.13-.38-.12-.08-.27-.12-.41-.13-.28-.04-.56-.02-.84,.01-.23,.02-.45,.06-.67,.15-.12,.05-.21,.13-.25,.26-.07,.23-.16,.46-.2,.7-.09,.46-.26,.88-.47,1.3-.56,1.14-1.19,2.24-1.84,3.33-.01,.02-.02,.05-.06,.04-.12-.24-.24-.48-.35-.73-.09-.21-.15-.43-.17-.66,0-.1-.03-.19-.04-.29-.06-.43-.05-.86,.04-1.29,.09-.41,.23-.81,.36-1.21,.05-.16,.02-.25-.11-.35-.12-.09-.26-.13-.41-.15-.32-.05-.63-.02-.95,.02-.19,.02-.37,.06-.55,.12-.16,.06-.27,.15-.3,.32,0,.04-.02,.08-.03,.11-.11,.44-.24,.88-.42,1.3-.58,1.33-1.17,2.65-1.76,3.97-.43,.95-.85,1.91-1.34,2.83-.06,.1-.11,.21-.18,.3-.02,.03-.05,.08-.1,.06-.03-.07-.04-.14-.04-.21-.02-.33,.01-.66,.08-.99,.18-.89,.41-1.76,.64-2.63,.09-.33,.19-.66,.26-1,.04-.21-.03-.37-.2-.49-.12-.08-.25-.13-.39-.16-.19-.04-.37,0-.52,.12-.04,.03-.07,.07-.12,.06-.01-.05,0-.1,0-.15,.05-.28,.06-.57,.04-.86-.01-.24-.06-.48-.16-.71-.14-.31-.37-.52-.71-.6-.18-.05-.36-.05-.55-.03-.42,.06-.8,.22-1.16,.44-.74,.44-1.36,1.01-1.87,1.69-.04,.05-.08,.11-.14,.14-1.18,.64-2.36,1.29-3.54,1.94-.1,.05-.1,.05-.18-.04-.22-.24-.46-.46-.7-.68-.56-.49-1.15-.94-1.74-1.4-.58-.45-1.15-.89-1.68-1.4-.43-.4-.82-.83-1.12-1.34-.29-.47-.48-.98-.52-1.53-.05-.66,.06-1.3,.31-1.91,.26-.66,.66-1.23,1.12-1.77,.64-.74,1.38-1.37,2.16-1.95,1.02-.74,2.1-1.37,3.21-1.96,1.36-.71,2.77-1.3,4.26-1.7,1.28-.34,2.58-.53,3.91-.47,.6,.03,1.2,.11,1.78,.29,.44,.13,.85,.31,1.21,.6,.3,.23,.51,.51,.63,.87,.07,.23,.12,.46,.13,.7,.01,.42-.06,.82-.19,1.22-.24,.72-.63,1.35-1.11,1.94-.81,.98-1.8,1.75-2.91,2.35-1.52,.82-3.14,1.28-4.85,1.39-.68,.04-1.35-.03-2-.25-.53-.18-1.02-.43-1.4-.87-.04-.05-.09-.09-.14-.13-.05-.05-.11-.08-.19-.05-.08,.03-.12,.09-.13,.18,0,.08,.01,.15,.03,.23,.08,.28,.23,.53,.42,.74,.66,.73,1.49,1.13,2.45,1.29,.87,.15,1.74,.14,2.62,.05,.94-.1,1.86-.3,2.76-.58,1.41-.43,2.68-1.11,3.78-2.1,.97-.87,1.76-1.88,2.29-3.08,.44-1.01,.66-2.05,.51-3.15-.11-.8-.43-1.49-.99-2.07-.48-.49-1.05-.85-1.67-1.12-1.09-.47-2.23-.66-3.41-.71-.31-.02-.62,0-.92,0-.44,0-.89,0-1.33,.05-.88,.09-1.75,.28-2.59,.55-1.48,.48-2.91,1.08-4.31,1.78-1.09,.55-2.15,1.17-3.15,1.88-.83,.58-1.6,1.22-2.32,1.92-.32,.31-.61,.64-.9,.98-.61,.72-1.13,1.5-1.5,2.37-.18,.43-.35,.86-.37,1.33,0,.1,0,.2-.03,.3v.55c.06,.22,.04,.46,.11,.68,.21,.66,.55,1.25,.96,1.79,.6,.78,1.32,1.44,2.08,2.05,.84,.67,1.74,1.28,2.63,1.89,.44,.3,.88,.61,1.3,.94,.13,.1,.12,.14-.02,.22-.21,.11-.42,.22-.63,.33-.8,.43-1.58,.9-2.32,1.42-.69,.49-1.33,1.02-1.89,1.66-.67,.76-1.02,1.65-1.05,2.65-.02,.61,.12,1.19,.45,1.71,.31,.5,.73,.85,1.35,.9,.23,.02,.46,.02,.69,.04h.64c.05-.03,.11-.01,.17-.01,.24-.01,.49-.02,.73-.07,.58-.13,1.12-.35,1.63-.65,.63-.36,1.17-.83,1.65-1.38,.52-.61,.91-1.29,1.16-2.06,.26-.81,.36-1.64,.31-2.49-.04-.59-.14-1.16-.36-1.7-.08-.19-.07-.21,.1-.31,.51-.29,1.02-.59,1.53-.88,.04-.02,.08-.07,.13-.04,.01,.05-.01,.09-.03,.13-.24,.77-.34,1.56-.38,2.35-.03,.63,.08,1.24,.27,1.84,.14,.45,.32,.89,.59,1.28,.39,.58,.85,.73,1.54,.61,.38-.07,.63-.33,.83-.62,.37-.52,.63-1.1,.89-1.67,.15-.32,.31-.64,.39-.98-.02,.07-.04,.13-.05,.2-.06,.54-.06,1.09,.06,1.62,.04,.19,.11,.36,.21,.53,.28,.48,.86,.6,1.34,.28,.41-.28,.72-.65,.97-1.08,.6-1.05,1.17-2.12,1.7-3.21,.54-1.1,1.02-2.23,1.48-3.36,.01-.03,.02-.07,.05-.09,.02,.02,.02,.04,.02,.06,.11,.49,.22,.98,.4,1.45,.16,.44,.4,.85,.59,1.28,.05,.11,.05,.2-.03,.3-.12,.15-.22,.31-.34,.46-.53,.7-1.12,1.34-1.67,2.02-.2,.25-.41,.48-.55,.77-.11,.23-.15,.48,.02,.71,.13,.18,.32,.29,.55,.33,.27,.04,.54,.03,.81,0,.72-.08,1.39-.34,2.01-.7,.44-.26,.81-.58,1.09-1.01,.41-.64,.48-1.34,.36-2.08-.06-.34-.17-.67-.3-.99-.04-.1-.05-.19,.02-.29,.73-1.07,1.38-2.18,1.97-3.34,.02-.03,.02-.08,.07-.08,.03,.04,.03,.09,.04,.14,.12,.49,.22,.99,.41,1.46,.13,.32,.28,.63,.43,.94,.05,.1,.06,.18-.03,.26-.22,.2-.43,.39-.63,.6-.33,.36-.63,.73-.87,1.15-.34,.57-.57,1.18-.53,1.86,.02,.37,.24,.69,.58,.82,.21,.08,.43,.08,.65,.04,.27-.05,.53-.16,.79-.26,.87-.35,1.61-.88,2.13-1.67,.27-.41,.39-.86,.36-1.34-.03-.38-.11-.74-.23-1.09-.04-.12,0-.18,.11-.22,.13-.05,.27-.09,.4-.13,.62-.19,1.27-.26,1.91-.26,.36,0,.72,.02,1.07,.07,.76,.1,1.49,.28,2.16,.67,.67,.39,1.17,.93,1.41,1.68,.16,.49,.14,.98-.12,1.44-.17,.29-.39,.53-.67,.72-.11,.07-.22,.14-.32,.22-.09,.07-.12,.16-.08,.26,.04,.1,.12,.15,.23,.15,.13,0,.25-.04,.37-.09,.24-.1,.45-.23,.65-.39,.56-.46,.94-1.02,.89-1.79,0-.16,.01-.33,0-.49Zm-29.22,3.14c-.53,1.26-1.4,2.19-2.69,2.71-.32,.13-.66,.21-1.01,.19-.05,0-.11,0-.16-.01-.46-.07-.69-.35-.72-.85-.02-.4,.07-.77,.22-1.14,.27-.66,.7-1.21,1.23-1.68,.81-.71,1.69-1.32,2.61-1.88,.19-.11,.38-.23,.56-.34,.02-.01,.04-.03,.07-.02,.06,.18,.1,.37,.13,.56,.14,.84,.07,1.66-.26,2.45Zm7.78-6.66c-.15,.68-.36,1.34-.6,1.99-.37,1.02-.75,2.03-1.19,3.02-.11,.25-.24,.49-.39,.71-.06,.08-.12,.16-.2,.21-.11,.08-.19,.07-.28-.03-.07-.08-.12-.18-.15-.28-.08-.22-.11-.44-.14-.67-.02-.18-.02-.36-.03-.54,.01-1.17,.32-2.26,.88-3.27,.17-.32,.36-.63,.57-.92,.22-.3,.48-.55,.79-.74,.14-.09,.29-.16,.46-.18,.05,0,.11-.01,.16,0,.12,.03,.17,.09,.18,.21,0,.16-.02,.32-.05,.48Zm6.89,4.56c-.15,.36-.39,.66-.68,.92-.19,.17-.4,.33-.62,.46-.09,.06-.19,.1-.29,.12-.04,0-.08,.02-.11-.02-.03-.04,.01-.07,.04-.1,0-.01,.02-.02,.03-.03,.59-.64,1.17-1.29,1.69-1.99,.01-.02,.02-.03,.03-.05,.01,0,.02,0,.03,.01,0,.23-.04,.45-.13,.66Zm5.14-1.37c-.11,.69-.51,1.17-1.13,1.48-.09,.05-.18,.09-.28,.12-.09,.04-.12,.01-.13-.08,0-.09,0-.17,.03-.26,.18-.59,.43-1.14,.82-1.63,.17-.2,.34-.4,.54-.57,.02-.02,.03-.04,.07-.04,.12,.32,.13,.65,.08,.98Z" style="fill: #fff;"/>
</svg>