<?xml version="1.0" encoding="UTF-8"?>
<svg id="Layer_1" data-name="Layer 1" xmlns="http://www.w3.org/2000/svg" viewBox="0 0 48 48">
  <circle cx="24" cy="24" r="24" style="fill: #161d2d;"/>
  <g>
    <path d="M33.99,28.16c-.05,.17-.09,.35-.14,.52-.65,2.07-1.72,3.87-3.38,5.3-1.09,.93-2.35,1.46-3.74,1.75-.95,.2-1.9,.33-2.87,.29-3.03-.11-5.7-1.11-7.88-3.27-.9-.89-1.77-1.81-2.79-2.57-.83-.62-1.72-1.14-2.75-1.36-1.41-.29-2.72,0-3.95,.7-.93,.53-1.71,1.24-2.35,2.11-.03,.04-.07,.09-.14,.12,.02-.09,.03-.18,.05-.27,.49-2.07,1.46-3.86,3.09-5.25,1.29-1.1,2.8-1.73,4.46-2.03,1.21-.22,2.43-.27,3.65-.17,2.53,.21,4.73,1.19,6.58,2.93,.76,.72,1.5,1.48,2.22,2.24,1.1,1.16,2.47,1.77,4.04,1.93,1.53,.16,2.9-.32,4.12-1.24,.6-.46,1.13-.99,1.6-1.58,.04-.05,.09-.11,.13-.16,.01,0,.03,.01,.04,.02Z" style="fill: #07b6d5;"/>
    <path d="M44,16.18c-.18,.53-.34,1.06-.55,1.58-.72,1.73-1.74,3.23-3.23,4.4-1.04,.82-2.23,1.29-3.51,1.57-.93,.2-1.88,.33-2.83,.3-3.06-.1-5.75-1.11-7.94-3.29-.89-.89-1.76-1.8-2.77-2.56-.82-.62-1.71-1.13-2.73-1.35-1.31-.29-2.55-.04-3.73,.56-1.11,.57-2,1.39-2.75,2.4,.05-.21,.09-.41,.15-.62,.05-.21,.11-.41,.18-.61,.66-2.01,1.8-3.68,3.56-4.88,1.2-.82,2.54-1.29,3.96-1.52,1.15-.19,2.3-.22,3.46-.12,2.35,.2,4.44,1.05,6.2,2.63,.89,.8,1.7,1.67,2.55,2.51,.43,.43,.87,.84,1.41,1.13,1.13,.6,2.32,.93,3.6,.84,1.29-.1,2.42-.61,3.39-1.44,.5-.43,.94-.95,1.4-1.43,.04-.04,.07-.08,.11-.13,.02,.01,.05,.02,.07,.03Z" style="fill: #07b6d5;"/>
  </g>
</svg>