<?xml version="1.0" encoding="UTF-8"?>
<svg id="Layer_1" data-name="Layer 1" xmlns="http://www.w3.org/2000/svg" viewBox="0 0 48 48">
  <path d="M9.61,6.23h8.88c.13,.08,.22,.2,.29,.34,1.51,2.61,3.02,5.23,4.53,7.84,.18,.31,.36,.62,.54,.93,.12,.2,.19,.21,.31,0,.55-.95,1.1-1.91,1.65-2.86,1.03-1.78,2.05-3.56,3.08-5.33,.12-.2,.24-.41,.35-.62,.07-.12,.16-.22,.28-.3h8.88s.03,.03,.04,.05c.02,.12-.05,.21-.1,.3-1.91,3.31-3.82,6.62-5.73,9.93-1.78,3.08-3.56,6.16-5.34,9.24-1.02,1.77-2.05,3.54-3.07,5.32-.14,.25-.23,.25-.37,.01-.7-1.2-1.39-2.4-2.08-3.6-1.02-1.77-2.05-3.54-3.07-5.32-1.1-1.91-2.2-3.81-3.3-5.72-1.03-1.78-2.05-3.56-3.08-5.33-.88-1.53-1.77-3.06-2.65-4.6-.04-.07-.12-.14-.07-.24,.01-.02,.03-.03,.04-.04Z" style="fill: #34495e;"/>
  <path d="M38.39,6.27c3.19,0,6.38,0,9.57,0-.33,.59-.66,1.17-1,1.76-7.61,13.18-15.22,26.36-22.83,39.54-.04,.06-.07,.13-.11,.19-.09-.03-.1-.11-.14-.17-5.75-9.96-11.5-19.92-17.26-29.88C4.46,13.97,2.31,10.23,.15,6.49c-.04-.07-.07-.14-.11-.22,3.19,0,6.38,0,9.57,0,.76,1.31,1.52,2.63,2.28,3.94,1.8,3.12,3.6,6.23,5.4,9.35,1.89,3.28,3.79,6.56,5.68,9.84,.3,.53,.61,1.05,.91,1.58,.1,.18,.13,.18,.23,0,1.48-2.55,2.95-5.11,4.42-7.66,1.54-2.67,3.08-5.33,4.62-8,1.49-2.58,2.98-5.16,4.47-7.73,.25-.44,.51-.87,.77-1.31Z" style="fill: #40b782;"/>
</svg>