<?xml version="1.0" encoding="UTF-8"?>
<svg id="DarkSilhouette" xmlns="http://www.w3.org/2000/svg" viewBox="0 0 1008 1008">
  <path d="M768.41,426.5v271.25c-42.81,0-77.5-34.69-77.5-77.5v-193.75c0-21.4-17.35-38.75-38.75-38.75h-232.5c33.74,0,62.43-21.54,73.08-51.63,2.87-8.09,4.42-16.8,4.42-25.87h155c6.59,0,13.06,.55,19.38,1.62,42.01,7.04,76.38,36.61,90.24,75.88,4.31,12.13,6.63,25.16,6.63,38.75Z" style="fill: #151821;"/>
  <path d="M1000.92,426.5v271.25c-42.81,0-77.5-34.69-77.5-77.5v-193.75c0-21.4-17.35-38.75-38.75-38.75h-84.13c-3.19-9.07-7.5-17.64-12.74-25.53-9.87-14.86-23.07-27.31-38.55-36.31h-.02c-1.09-.64-2.17-1.23-3.28-1.82-1.6-1.44-2.6-3.53-2.6-5.86,0-4.4,3.58-7.98,7.98-7.98h133.35c64.21,0,116.25,52.04,116.25,116.25Z" style="fill: #151821;"/>
  <path d="M535.91,581.5c0,64.21-52.04,116.25-116.25,116.25H7.08c0-19.81,7.41-37.86,19.65-51.56,14.18-15.91,34.85-25.94,57.85-25.94H419.66c21.4,0,38.75-17.35,38.75-38.75s-17.35-38.75-38.75-38.75H123.33c-34.44,0-65.37-14.95-86.64-38.75-18.42-20.56-29.61-47.73-29.61-77.5,0-64.21,52.04-116.25,116.25-116.25H497.16c0,9.07-1.55,17.78-4.42,25.87-10.64,30.09-39.34,51.63-73.08,51.63H123.33c-21.4,0-38.75,17.35-38.75,38.75s17.35,38.75,38.75,38.75H419.66c34.44,0,65.37,14.95,86.64,38.75,18.42,20.56,29.61,47.73,29.61,77.5Z" style="fill: #151821;"/>
</svg>